<?xml version="1.0" encoding="UTF-8"?>
<svg version="1.1" xmlns="http://www.w3.org/2000/svg" width="512" height="512">
<path d="M0 0 C26.07 0 52.14 0 79 0 C79 40.92 79 81.84 79 124 C108.37 124 137.74 124 168 124 C168 154.69 168 185.38 168 217 C138.63 217 109.26 217 79 217 C79.09071155 240.85457962 79.09071155 240.85457962 79.20898438 264.70898438 C79.2633655 274.44391154 79.31478286 284.17878721 79.34643555 293.91381836 C79.36950734 301.0054164 79.40300664 308.09687802 79.44870156 315.18836766 C79.47251086 318.93855316 79.49131969 322.68860457 79.49761391 326.43886375 C79.50372105 329.97906713 79.52391975 333.518928 79.55427551 337.05900383 C79.56706593 338.956562 79.56550131 340.85420056 79.5632782 342.75180054 C79.71307174 356.6365789 82.55748463 368.71676595 91.1875 379.8125 C104.2320772 389.95828227 117.78229838 391.05600684 133.6953125 391.31640625 C134.64849365 391.33505737 135.6016748 391.3537085 136.58374023 391.3729248 C140.0974117 391.44051156 143.6112148 391.50111031 147.125 391.5625 C158.943125 391.7790625 158.943125 391.7790625 171 392 C171 424.34 171 456.68 171 490 C155.634375 490.061875 140.26875 490.12375 124.4375 490.1875 C117.23377563 490.22846802 117.23377563 490.22846802 109.88452148 490.27026367 C103.89465332 490.28381348 103.89465332 490.28381348 101.06629944 490.28633118 C99.14395547 490.29085556 97.22161848 490.30122847 95.29933167 490.31672668 C76.96162786 490.45682392 58.27937924 489.44845281 40.5625 484.3125 C39.66692383 484.06048828 38.77134766 483.80847656 37.84863281 483.54882812 C29.36395477 481.03462506 21.6466331 477.41329883 14 473 C13.21915039 472.56800293 12.43830078 472.13600586 11.63378906 471.69091797 C5.43790707 468.15704986 0.36792385 464.07326892 -4.75 459.125 C-5.46542969 458.45597656 -6.18085938 457.78695313 -6.91796875 457.09765625 C-24.57992583 440.27828795 -34.10798686 417.79352666 -38.1875 394.125 C-38.35475586 393.15691406 -38.52201172 392.18882812 -38.69433594 391.19140625 C-40.82050083 378.02233545 -41.14991805 364.84158175 -41.11352539 351.52758789 C-41.11324238 350.04756167 -41.11340348 348.5675353 -41.1139679 347.08750916 C-41.11425142 343.12156905 -41.10842757 339.15566003 -41.10139394 335.18972707 C-41.09508542 331.02577328 -41.09455073 326.86181855 -41.09336853 322.69786072 C-41.09027711 314.83600875 -41.08209362 306.97417091 -41.07201904 299.11232513 C-41.05868414 288.47221965 -41.05334029 277.83211023 -41.04751682 267.19199848 C-41.03815194 250.46132177 -41.01821852 233.73067485 -41 217 C-62.78 217 -84.56 217 -107 217 C-107 190.27 -107 163.54 -107 136 C-101.39 134.35 -95.78 132.7 -90 131 C-86.28224839 129.30640683 -86.28224839 129.30640683 -82.65234375 127.4375 C-80.517606 126.28052873 -78.38638593 125.22043161 -76.19140625 124.1875 C-67.94074882 120.27535778 -60.85191735 116.13586112 -54 110 C-53.29488281 109.39027344 -52.58976562 108.78054687 -51.86328125 108.15234375 C-50.52257758 106.99040057 -49.19011926 105.81885657 -47.8671875 104.63671875 C-46.66992215 103.58723301 -45.44723023 102.5656809 -44.1953125 101.58203125 C-39.63307192 97.96265372 -36.63224509 93.86650382 -33.48046875 88.9765625 C-32.74763672 87.99816406 -32.74763672 87.99816406 -32 87 C-31.34 87 -30.68 87 -30 87 C-29.72760498 86.43659912 -29.45520996 85.87319824 -29.17456055 85.29272461 C-27.94773969 82.89798866 -26.6001449 80.61824172 -25.20703125 78.31640625 C-16.94383411 64.39577771 -10.8611748 50.73406641 -7 35 C-6.34 35 -5.68 35 -5 35 C-4.8659375 33.8759375 -4.731875 32.751875 -4.59375 31.59375 C-3.90232489 26.06234913 -2.99742742 20.56828993 -2.10546875 15.06640625 C-1.97785156 14.27105469 -1.85023438 13.47570312 -1.71875 12.65625 C-1.60466797 11.95306641 -1.49058594 11.24988281 -1.37304688 10.52539062 C-0.85600151 7.02518298 -0.43885848 3.5108678 0 0 Z " fill="#FEFEFE" transform="translate(224,11)"/>
<path d="" fill="#FFFFFF" transform="translate(0,0)"/>
<path d="" fill="#FFFFFF" transform="translate(0,0)"/>
<path d="" fill="#FFFFFF" transform="translate(0,0)"/>
<path d="" fill="#FFFFFF" transform="translate(0,0)"/>
<path d="" fill="#FFFFFF" transform="translate(0,0)"/>
<path d="" fill="#FFFFFF" transform="translate(0,0)"/>
<path d="" fill="#FFFFFF" transform="translate(0,0)"/>
<path d="" fill="#FFFFFF" transform="translate(0,0)"/>
<path d="" fill="#FFFFFF" transform="translate(0,0)"/>
<path d="" fill="#DFDFDF" transform="translate(0,0)"/>
<path d="" fill="#FFFFFF" transform="translate(0,0)"/>
<path d="" fill="#FFFFFF" transform="translate(0,0)"/>
<path d="" fill="#FFFFFF" transform="translate(0,0)"/>
</svg>
